<?xml version="1.0" encoding="UTF-8" standalone="no"?>
<!-- Created with Inkscape (http://www.inkscape.org/) -->

<svg
   xmlns:dc="http://purl.org/dc/elements/1.1/"
   xmlns:cc="http://creativecommons.org/ns#"
   xmlns:rdf="http://www.w3.org/1999/02/22-rdf-syntax-ns#"
   xmlns:svg="http://www.w3.org/2000/svg"
   xmlns="http://www.w3.org/2000/svg"
   xmlns:sodipodi="http://sodipodi.sourceforge.net/DTD/sodipodi-0.dtd"
   xmlns:inkscape="http://www.inkscape.org/namespaces/inkscape"
   id="svg4776"
   sodipodi:docname="Mobile-Icon-White-on-Black.svg"
   viewBox="0 0 300 300"
   version="1.1"
   inkscape:version="0.48+devel_64bit r13443"
   width="100%"
   height="100%">
  <title
     id="title3415">Mobile Icon - White on Black</title>
  <defs
     id="defs16" />
  <sodipodi:namedview
     id="base"
     bordercolor="#666666"
     inkscape:pageshadow="2"
     inkscape:window-y="-8"
     pagecolor="#ffffff"
     inkscape:window-height="1177"
     inkscape:window-maximized="1"
     inkscape:zoom="1.4"
     inkscape:window-x="-8"
     showgrid="false"
     borderopacity="1.0"
     inkscape:current-layer="layer1"
     inkscape:cx="-15.685852"
     inkscape:cy="152.99663"
     inkscape:window-width="1920"
     inkscape:pageopacity="0.0"
     inkscape:document-units="px" />
  <g
     id="layer1"
     inkscape:label="Layer 1"
     inkscape:groupmode="layer"
     transform="translate(-231.54,-375.82)">
    <ellipse
       ry="143.45013"
       rx="143.45773"
       cy="525.82001"
       cx="381.54001"
       id="path3794-5"
       style="color:#000000;fill:#000000;fill-opacity:1" />
    <path
       style="color:#000000;fill:#ffffff"
       d="m 344.28998,425.85513 c -10.31779,0 -18.62304,6.93764 -18.62304,15.55468 l 0,168.82227 c 0,8.61705 8.30525,15.55274 18.62304,15.55274 l 74.50002,0 c 10.31779,0 18.62304,-6.93569 18.62304,-15.55274 l 0,-168.82227 c 0,-8.61704 -8.30525,-15.55468 -18.62304,-15.55468 l -74.50002,0 z m 24.06642,8.00195 26.36719,0 c 1.108,0 2,0.85104 2,1.91016 0,1.05911 -0.892,1.91211 -2,1.91211 l -26.36719,0 c -1.108,0 -2,-0.853 -2,-1.91211 0,-1.05912 0.892,-1.91016 2,-1.91016 z m -22.86915,10.52734 72.10352,0 c 3.94201,0 7.11523,2.51754 7.11523,5.64649 l 0,143.57617 c 0,3.12895 -3.17322,5.64844 -7.11523,5.64844 l -72.10352,0 c -3.942,0 -7.11523,-2.51949 -7.11523,-5.64844 l 0,-143.57617 c 0,-3.12895 3.17323,-5.64649 7.11523,-5.64649 z m 22.86915,163.45313 26.36719,0 c 1.108,0 2,0.892 2,2 l 0,5.0918 c 0,1.108 -0.892,2 -2,2 l -26.36719,0 c -1.108,0 -2,-0.892 -2,-2 l 0,-5.0918 c 0,-1.108 0.892,-2 2,-2 z"
       id="rect6580-2"
       inkscape:connector-curvature="0" />
  </g>
  <metadata
     id="metadata14">
    <rdf:RDF>
      <cc:Work>
        <dc:format>image/svg+xml</dc:format>
        <dc:type
           rdf:resource="http://purl.org/dc/dcmitype/StillImage" />
        <cc:license
           rdf:resource="http://creativecommons.org/publicdomain/zero/1.0/" />
        <dc:publisher>
          <cc:Agent
             rdf:about="http://openclipart.org/">
            <dc:title>Rygle</dc:title>
          </cc:Agent>
        </dc:publisher>
        <dc:title>Mobile Icon - White on Black</dc:title>
        <dc:date>2015-03-29</dc:date>
        <dc:description>Mobile Icon - White on Black</dc:description>
        <dc:source />
        <dc:creator>
          <cc:Agent>
            <dc:title>Rygle</dc:title>
          </cc:Agent>
        </dc:creator>
        <dc:subject>
          <rdf:Bag>
            <rdf:li>Icon</rdf:li>
            <rdf:li>mobile</rdf:li>
            <rdf:li>communication</rdf:li>
            <rdf:li>communicate</rdf:li>
          </rdf:Bag>
        </dc:subject>
        <dc:rights>
          <cc:Agent>
            <dc:title>Public Domain</dc:title>
          </cc:Agent>
        </dc:rights>
        <dc:contributor>
          <cc:Agent>
            <dc:title>Rygle</dc:title>
          </cc:Agent>
        </dc:contributor>
      </cc:Work>
      <cc:License
         rdf:about="http://creativecommons.org/publicdomain/zero/1.0/">
        <cc:permits
           rdf:resource="http://creativecommons.org/ns#Reproduction" />
        <cc:permits
           rdf:resource="http://creativecommons.org/ns#Distribution" />
        <cc:permits
           rdf:resource="http://creativecommons.org/ns#DerivativeWorks" />
      </cc:License>
    </rdf:RDF>
  </metadata>
</svg>
